<svg width="1425" height="238" viewBox="0 0 1425 238" fill="none" xmlns="http://www.w3.org/2000/svg">
<path d="M1426.65 184.483C1446.59 170.427 1451.67 143.328 1438.01 123.956C1424.34 104.584 1397.11 100.274 1377.18 114.33C1357.25 128.386 1352.17 155.485 1365.83 174.857C1379.49 194.23 1406.72 198.539 1426.65 184.483Z" fill="#FAD34F"/>
<path d="M1398.17 129.788C1399.09 131.097 1397.64 131.219 1396.29 132.169C1394.94 133.119 1394.21 134.541 1393.29 133.229C1392.36 131.917 1392.71 130.087 1394.06 129.137C1395.4 128.185 1397.24 128.476 1398.17 129.788Z" fill="white"/>
<path d="M1407.49 123.213C1408.41 124.523 1406.96 124.644 1405.61 125.594C1404.27 126.544 1403.54 127.966 1402.61 126.654C1401.69 125.342 1402.03 123.513 1403.38 122.562C1404.73 121.61 1406.57 121.901 1407.49 123.213Z" fill="white"/>
<path d="M1409.47 130.934C1411.27 133.492 1410.6 137.072 1407.97 138.928C1405.34 140.784 1401.74 140.215 1399.93 137.657C1398.13 135.098 1402.19 136.329 1404.83 134.473C1407.46 132.617 1407.66 128.376 1409.47 130.934Z" fill="white"/>
<path d="M1297.46 95.7675C1297.46 117.435 1279.9 135 1258.23 135V135C1236.56 135 1219 117.435 1219 95.7675V38H1297.46V95.7675Z" fill="#46EBB0"/>
<path d="M1257.01 107.05C1257.01 104.241 1259.29 107.05 1262.1 107.05C1264.91 107.05 1267.19 104.241 1267.19 107.05C1267.19 109.859 1264.91 112.14 1262.1 112.14C1259.29 112.14 1257.01 109.862 1257.01 107.05Z" fill="white"/>
<path d="M1240.99 107.05C1240.99 104.241 1243.26 107.05 1246.08 107.05C1248.89 107.05 1251.17 104.241 1251.17 107.05C1251.17 109.859 1248.89 112.14 1246.08 112.14C1243.26 112.14 1240.99 109.862 1240.99 107.05Z" fill="white"/>
<path d="M1246.09 96.2664C1246.09 91.0982 1250.28 86.9108 1255.44 86.9108C1260.61 86.9108 1264.8 91.1008 1264.8 96.2664C1264.8 101.432 1260.61 95.9055 1255.44 95.9055C1250.28 95.9055 1246.09 101.432 1246.09 96.2664Z" fill="white"/>
<g clip-path="url(#clip0_1101_9)">
<path d="M218.884 225.942C175.22 265.761 108.448 263.637 69.745 221.198C31.0418 178.758 35.0633 112.073 78.7274 72.2535C122.391 32.4338 189.163 34.5579 227.867 76.9977C266.57 119.438 262.548 186.122 218.884 225.942Z" fill="#F472B7"/>
<path d="M104.344 129.984C106.961 132.853 108.006 129.478 110.957 126.787C113.909 124.095 117.654 123.11 115.033 120.236C112.412 117.362 107.903 117.223 104.951 119.915C101.995 122.602 101.723 127.11 104.344 129.984Z" fill="white"/>
<path d="M83.9197 148.61C86.536 151.479 87.5813 148.105 90.5329 145.413C93.4845 142.721 97.2297 141.736 94.6088 138.862C91.9878 135.988 87.4786 135.85 84.527 138.541C81.5707 141.228 81.2988 145.736 83.9197 148.61Z" fill="white"/>
<path d="M101.157 157.316C106.268 162.92 115.087 163.201 120.853 157.942C126.62 152.684 127.151 143.876 122.04 138.272C116.929 132.667 117.72 142.925 111.953 148.183C106.187 153.442 96.0461 151.711 101.157 157.316Z" fill="white"/>
</g>
<defs>
<clipPath id="clip0_1101_9">
<rect width="214" height="208" fill="white" transform="matrix(-0.738886 0.673831 0.673831 0.738886 158.122 0)"/>
</clipPath>
</defs>
</svg>
