<svg width="1032" height="833" viewBox="0 0 1032 833" fill="none" xmlns="http://www.w3.org/2000/svg">
<g clip-path="url(#clip0_1104_11)">
<path d="M951.884 760.942C908.22 800.761 841.448 798.637 802.745 756.198C764.041 713.758 768.063 647.073 811.727 607.254C855.391 567.434 922.163 569.558 960.866 611.998C999.569 654.438 995.548 721.122 951.884 760.942Z" fill="#F472B7"/>
<path d="M837.344 664.984C839.96 667.853 841.005 664.478 843.957 661.787C846.909 659.095 850.654 658.11 848.033 655.236C845.412 652.362 840.903 652.223 837.951 654.915C834.995 657.602 834.723 662.11 837.344 664.984Z" fill="white"/>
<path d="M816.919 683.61C819.536 686.479 820.581 683.105 823.532 680.413C826.484 677.721 830.229 676.736 827.608 673.862C824.987 670.988 820.478 670.85 817.527 673.541C814.57 676.228 814.298 680.736 816.919 683.61Z" fill="white"/>
<path d="M834.157 692.316C839.268 697.92 848.087 698.201 853.853 692.942C859.619 687.684 860.15 678.876 855.039 673.272C849.928 667.667 850.719 677.925 844.953 683.183C839.187 688.442 829.046 686.711 834.157 692.316Z" fill="white"/>
</g>
<g clip-path="url(#clip1_1104_11)">
<path d="M797.707 619.932C832.777 619.932 861.207 591.502 861.207 556.432C861.207 521.362 832.777 492.932 797.707 492.932C762.637 492.932 734.207 521.362 734.207 556.432C734.207 591.502 762.637 619.932 797.707 619.932Z" fill="#FAD34F"/>
<path d="M814.814 576.16C814.814 580.706 811.127 576.16 806.576 576.16C802.03 576.16 798.338 580.706 798.338 576.16C798.338 571.613 802.025 567.921 806.576 567.921C811.127 567.921 814.814 571.609 814.814 576.16Z" fill="white"/>
<path d="M840.752 576.16C840.752 580.706 837.065 576.16 832.514 576.16C827.967 576.16 824.276 580.706 824.276 576.16C824.276 571.613 827.963 567.921 832.514 567.921C837.065 567.921 840.752 571.609 840.752 576.16Z" fill="white"/>
<path d="M832.497 593.614C832.497 601.979 825.715 608.756 817.354 608.756C808.993 608.756 802.212 601.974 802.212 593.614C802.212 585.253 808.993 594.198 817.354 594.198C825.715 594.198 832.497 585.253 832.497 593.614Z" fill="white"/>
</g>
<g clip-path="url(#clip2_1104_11)">
<path d="M85.6544 95.4833C105.586 81.4273 110.668 54.3283 97.0059 34.9559C83.344 15.5835 56.1114 11.2738 36.1802 25.3298C16.249 39.3859 11.1668 66.4849 24.8287 85.8573C38.4906 105.23 65.7232 109.539 85.6544 95.4833Z" fill="#FAD34F"/>
<path d="M57.1683 40.788C58.0918 42.0975 56.639 42.2187 55.2917 43.1688C53.9444 44.119 53.2143 45.5408 52.2891 44.2289C51.3639 42.917 51.7092 41.0874 53.0565 40.1372C54.4021 39.1847 56.2431 39.4761 57.1683 40.788Z" fill="white"/>
<path d="M66.4913 34.2131C67.4148 35.5226 65.962 35.6438 64.6147 36.594C63.2674 37.5441 62.5373 38.9659 61.6121 37.654C60.6869 36.3422 61.0322 34.5125 62.3795 33.5624C63.7251 32.6099 65.5661 32.9012 66.4913 34.2131Z" fill="white"/>
<path d="M68.467 41.9342C70.2711 44.4925 69.5999 48.0717 66.9678 49.9279C64.3358 51.7841 60.7389 51.2149 58.9348 48.6566C57.1306 46.0983 61.1942 47.3293 63.8262 45.4731C66.4583 43.6169 66.6628 39.376 68.467 41.9342Z" fill="white"/>
</g>
<defs>
<clipPath id="clip0_1104_11">
<rect width="214" height="208" fill="white" transform="matrix(-0.738886 0.673831 0.673831 0.738886 891.121 535)"/>
</clipPath>
<clipPath id="clip1_1104_11">
<rect width="127" height="127" fill="white" transform="translate(734 493)"/>
</clipPath>
<clipPath id="clip2_1104_11">
<rect width="88.3204" height="85.8441" fill="white" transform="translate(0 50.9014) rotate(-35.1926)"/>
</clipPath>
</defs>
</svg>
